{
	"asset":{
		"generator":"Khronos glTF Blender I/O v4.3.47",
		"version":"2.0"
	},
	"scene":0,
	"scenes":[
		{
			"name":"Scene",
			"nodes":[
				0
			]
		}
	],
	"nodes":[
		{
			"mesh":0,
			"name":"Cube.001",
			"rotation":[
				-0.024612918496131897,
				0.9990760087966919,
				0.013322195969522,
				0.032617006450891495
			],
			"scale":[
				0.031269241124391556,
				0.031269241124391556,
				0.031269241124391556
			],
			"translation":[
				7.979641437530518,
				-0.12900462746620178,
				-1.510664463043213
			]
		}
	],
	"materials":[
		{
			"doubleSided":true,
			"name":"Material.016",
			"pbrMetallicRoughness":{
				"baseColorTexture":{
					"index":0
				},
				"metallicFactor":0,
				"roughnessFactor":0.5
			}
		},
		{
			"doubleSided":true,
			"name":"Material.012",
			"pbrMetallicRoughness":{
				"baseColorTexture":{
					"index":1
				},
				"metallicFactor":0,
				"roughnessFactor":0.5
			}
		},
		{
			"doubleSided":true,
			"name":"Material",
			"pbrMetallicRoughness":{
				"baseColorTexture":{
					"index":2
				},
				"metallicFactor":0,
				"roughnessFactor":0.5
			}
		},
		{
			"doubleSided":true,
			"name":"Material.021",
			"pbrMetallicRoughness":{
				"baseColorTexture":{
					"index":3
				},
				"metallicFactor":0,
				"roughnessFactor":0.5
			}
		},
		{
			"doubleSided":true,
			"name":"Material.014",
			"pbrMetallicRoughness":{
				"baseColorTexture":{
					"index":4
				},
				"metallicFactor":0,
				"roughnessFactor":0.5
			}
		},
		{
			"doubleSided":true,
			"name":"Material.017",
			"pbrMetallicRoughness":{
				"baseColorTexture":{
					"index":5
				},
				"metallicFactor":0,
				"roughnessFactor":0.5
			}
		},
		{
			"doubleSided":true,
			"name":"Material.015",
			"pbrMetallicRoughness":{
				"baseColorTexture":{
					"index":6
				},
				"metallicFactor":0,
				"roughnessFactor":0.5
			}
		}
	],
	"meshes":[
		{
			"name":"Cube.013",
			"primitives":[
				{
					"attributes":{
						"POSITION":0,
						"NORMAL":1,
						"TEXCOORD_0":2
					},
					"indices":3,
					"material":0
				},
				{
					"attributes":{
						"POSITION":4,
						"NORMAL":5,
						"TEXCOORD_0":6
					},
					"indices":7,
					"material":1
				},
				{
					"attributes":{
						"POSITION":8,
						"NORMAL":9,
						"TEXCOORD_0":10
					},
					"indices":11,
					"material":2
				},
				{
					"attributes":{
						"POSITION":12,
						"NORMAL":13,
						"TEXCOORD_0":14
					},
					"indices":15,
					"material":3
				},
				{
					"attributes":{
						"POSITION":16,
						"NORMAL":17,
						"TEXCOORD_0":18
					},
					"indices":19,
					"material":4
				},
				{
					"attributes":{
						"POSITION":20,
						"NORMAL":21,
						"TEXCOORD_0":22
					},
					"indices":23,
					"material":5
				},
				{
					"attributes":{
						"POSITION":24,
						"NORMAL":25,
						"TEXCOORD_0":26
					},
					"indices":27,
					"material":6
				}
			]
		}
	],
	"textures":[
		{
			"sampler":0,
			"source":0
		},
		{
			"sampler":0,
			"source":0
		},
		{
			"sampler":0,
			"source":0
		},
		{
			"sampler":0,
			"source":0
		},
		{
			"sampler":0,
			"source":0
		},
		{
			"sampler":0,
			"source":0
		},
		{
			"sampler":0,
			"source":0
		}
	],
	"images":[
		{
			"bufferView":4,
			"mimeType":"image/png",
			"name":"BG.png"
		}
	],
	"accessors":[
		{
			"bufferView":0,
			"componentType":5126,
			"count":56,
			"max":[
				1.2303019762039185,
				1.016066074371338,
				3.304922103881836
			],
			"min":[
				-0.9348263144493103,
				-1.2761151790618896,
				-6.493936538696289
			],
			"type":"VEC3"
		},
		{
			"bufferView":1,
			"componentType":5126,
			"count":56,
			"type":"VEC3"
		},
		{
			"bufferView":2,
			"componentType":5126,
			"count":56,
			"type":"VEC2"
		},
		{
			"bufferView":3,
			"componentType":5123,
			"count":84,
			"type":"SCALAR"
		},
		{
			"bufferView":5,
			"componentType":5126,
			"count":54,
			"max":[
				8.137147903442383,
				18.834320068359375,
				11.883379936218262
			],
			"min":[
				-9.305166244506836,
				15.772134780883789,
				-5.746825218200684
			],
			"type":"VEC3"
		},
		{
			"bufferView":6,
			"componentType":5126,
			"count":54,
			"type":"VEC3"
		},
		{
			"bufferView":7,
			"componentType":5126,
			"count":54,
			"type":"VEC2"
		},
		{
			"bufferView":8,
			"componentType":5123,
			"count":240,
			"type":"SCALAR"
		},
		{
			"bufferView":9,
			"componentType":5126,
			"count":226,
			"max":[
				6.150089740753174,
				35.94715881347656,
				13.535516738891602
			],
			"min":[
				-8.838672637939453,
				16.614362716674805,
				7.968265533447266
			],
			"type":"VEC3"
		},
		{
			"bufferView":10,
			"componentType":5126,
			"count":226,
			"type":"VEC3"
		},
		{
			"bufferView":11,
			"componentType":5126,
			"count":226,
			"type":"VEC2"
		},
		{
			"bufferView":12,
			"componentType":5123,
			"count":408,
			"type":"SCALAR"
		},
		{
			"bufferView":13,
			"componentType":5126,
			"count":262,
			"max":[
				2.312422513961792,
				17.162113189697266,
				5.21226692199707
			],
			"min":[
				-1.7335927486419678,
				1.032343864440918,
				1.1627748012542725
			],
			"type":"VEC3"
		},
		{
			"bufferView":14,
			"componentType":5126,
			"count":262,
			"type":"VEC3"
		},
		{
			"bufferView":15,
			"componentType":5126,
			"count":262,
			"type":"VEC2"
		},
		{
			"bufferView":16,
			"componentType":5123,
			"count":948,
			"type":"SCALAR"
		},
		{
			"bufferView":17,
			"componentType":5126,
			"count":56,
			"max":[
				1.6767566204071045,
				1.1838715076446533,
				12.878256797790527
			],
			"min":[
				-0.8246471881866455,
				-1.2650930881500244,
				2.981264352798462
			],
			"type":"VEC3"
		},
		{
			"bufferView":18,
			"componentType":5126,
			"count":56,
			"type":"VEC3"
		},
		{
			"bufferView":19,
			"componentType":5126,
			"count":56,
			"type":"VEC2"
		},
		{
			"bufferView":20,
			"componentType":5123,
			"count":84,
			"type":"SCALAR"
		},
		{
			"bufferView":21,
			"componentType":5126,
			"count":56,
			"max":[
				10.14349365234375,
				1.4289321899414062,
				4.4965925216674805
			],
			"min":[
				0.17688512802124023,
				-0.9053648114204407,
				2.0497100353240967
			],
			"type":"VEC3"
		},
		{
			"bufferView":22,
			"componentType":5126,
			"count":56,
			"type":"VEC3"
		},
		{
			"bufferView":23,
			"componentType":5126,
			"count":56,
			"type":"VEC2"
		},
		{
			"bufferView":24,
			"componentType":5123,
			"count":84,
			"type":"SCALAR"
		},
		{
			"bufferView":25,
			"componentType":5126,
			"count":56,
			"max":[
				0.5578227043151855,
				1.1531018018722534,
				4.280942916870117
			],
			"min":[
				-9.35068416595459,
				-1.7369811534881592,
				2.0657074451446533
			],
			"type":"VEC3"
		},
		{
			"bufferView":26,
			"componentType":5126,
			"count":56,
			"type":"VEC3"
		},
		{
			"bufferView":27,
			"componentType":5126,
			"count":56,
			"type":"VEC2"
		},
		{
			"bufferView":28,
			"componentType":5123,
			"count":84,
			"type":"SCALAR"
		}
	],
	"bufferViews":[
		{
			"buffer":0,
			"byteLength":672,
			"byteOffset":0,
			"target":34962
		},
		{
			"buffer":0,
			"byteLength":672,
			"byteOffset":672,
			"target":34962
		},
		{
			"buffer":0,
			"byteLength":448,
			"byteOffset":1344,
			"target":34962
		},
		{
			"buffer":0,
			"byteLength":168,
			"byteOffset":1792,
			"target":34963
		},
		{
			"buffer":0,
			"byteLength":1404950,
			"byteOffset":1960
		},
		{
			"buffer":0,
			"byteLength":648,
			"byteOffset":1406912,
			"target":34962
		},
		{
			"buffer":0,
			"byteLength":648,
			"byteOffset":1407560,
			"target":34962
		},
		{
			"buffer":0,
			"byteLength":432,
			"byteOffset":1408208,
			"target":34962
		},
		{
			"buffer":0,
			"byteLength":480,
			"byteOffset":1408640,
			"target":34963
		},
		{
			"buffer":0,
			"byteLength":2712,
			"byteOffset":1409120,
			"target":34962
		},
		{
			"buffer":0,
			"byteLength":2712,
			"byteOffset":1411832,
			"target":34962
		},
		{
			"buffer":0,
			"byteLength":1808,
			"byteOffset":1414544,
			"target":34962
		},
		{
			"buffer":0,
			"byteLength":816,
			"byteOffset":1416352,
			"target":34963
		},
		{
			"buffer":0,
			"byteLength":3144,
			"byteOffset":1417168,
			"target":34962
		},
		{
			"buffer":0,
			"byteLength":3144,
			"byteOffset":1420312,
			"target":34962
		},
		{
			"buffer":0,
			"byteLength":2096,
			"byteOffset":1423456,
			"target":34962
		},
		{
			"buffer":0,
			"byteLength":1896,
			"byteOffset":1425552,
			"target":34963
		},
		{
			"buffer":0,
			"byteLength":672,
			"byteOffset":1427448,
			"target":34962
		},
		{
			"buffer":0,
			"byteLength":672,
			"byteOffset":1428120,
			"target":34962
		},
		{
			"buffer":0,
			"byteLength":448,
			"byteOffset":1428792,
			"target":34962
		},
		{
			"buffer":0,
			"byteLength":168,
			"byteOffset":1429240,
			"target":34963
		},
		{
			"buffer":0,
			"byteLength":672,
			"byteOffset":1429408,
			"target":34962
		},
		{
			"buffer":0,
			"byteLength":672,
			"byteOffset":1430080,
			"target":34962
		},
		{
			"buffer":0,
			"byteLength":448,
			"byteOffset":1430752,
			"target":34962
		},
		{
			"buffer":0,
			"byteLength":168,
			"byteOffset":1431200,
			"target":34963
		},
		{
			"buffer":0,
			"byteLength":672,
			"byteOffset":1431368,
			"target":34962
		},
		{
			"buffer":0,
			"byteLength":672,
			"byteOffset":1432040,
			"target":34962
		},
		{
			"buffer":0,
			"byteLength":448,
			"byteOffset":1432712,
			"target":34962
		},
		{
			"buffer":0,
			"byteLength":168,
			"byteOffset":1433160,
			"target":34963
		}
	],
	"samplers":[
		{
			"magFilter":9729,
			"minFilter":9987
		}
	],
	"buffers":[
		{
			"byteLength":1433328,
			"uri":"data:application/octet-stream;base64,"
		}
	]
}
